HIERARCHY
ROOT Hips
{
	OFFSET 0.00000 0.00000 0.00000
	CHANNELS 6 Xposition Yposition Zposition Yrotation Zrotation Xrotation 
	JOINT Lumbar
	{
		OFFSET 0 0 0
		CHANNELS 3 Zrotation Xrotation Yrotation
		JOINT Neck
		{
			OFFSET 0.00 0.2701 0.00
			CHANNELS 3 Zrotation Xrotation Yrotation
			End Site
			{
				OFFSET 0.00 0.1379 0.00
			}
		}
		JOINT RightShoulder
		{
			OFFSET 0.0119 0.2289 0.1181
			CHANNELS 3 Zrotation Xrotation Yrotation
			JOINT RightElbow
			{
				OFFSET 0.00 -0.1475 0.00
				CHANNELS 2 Zrotation Yrotation
				JOINT RightWrist
				{
					OFFSET 0.00 -0.1605 0.00
					CHANNELS 2 Zrotation Xrotation
					End Site
					{
						OFFSET 0.0040 -0.1068 0.0006
					}
				}
			}
		}
		JOINT LeftShoulder
		{
			OFFSET 0.0119 0.2289 -0.1181
			CHANNELS 3 Zrotation Xrotation Yrotation
			JOINT LeftElbow
			{
				OFFSET 0.00 -0.1475 0.00
				CHANNELS 2 Zrotation Yrotation
				JOINT LeftWrist
				{
					OFFSET 0.00 -0.1605 0.00
					CHANNELS 2 Zrotation Xrotation
					End Site
					{
						OFFSET 0.0040 -0.1068 -0.0006
					}
				}
			}
		}
	}
	JOINT RightHip
	{
		OFFSET 0.0316 -0.0424 0.0458
		CHANNELS 3 Zrotation Xrotation Yrotation
		JOINT RightKnee
		{
			OFFSET 0.00 -0.2438 0.00
			CHANNELS 1 Zrotation
			JOINT RightAnkle
			{
				OFFSET 0.00 -0.2449 0.00
				CHANNELS 3 Zrotation Xrotation Yrotation
				End Site
				{
					OFFSET 0.1237 -0.0542 0.0051
				}
			}
		}
	}
	JOINT LeftHip
	{
		OFFSET 0.0316 -0.0424 -0.0458
		CHANNELS 3 Zrotation Xrotation Yrotation
		JOINT LeftKnee
		{
			OFFSET 0.00 -0.2438 0.00
			CHANNELS 1 Zrotation
			JOINT LeftAnkle
			{
				OFFSET 0.00 -0.2449 0.00
				CHANNELS 3 Zrotation Xrotation Yrotation
				End Site
				{
					OFFSET 0.1237 -0.0542 -0.0051
				}
			}
		}
	}
}
MOTION
Frames: 28
Frame Time: 0.02
0.00022 0.00015 0.00012 19.2933 -32.48886 -2.88462 57.0207 1.19021 2.11808 -10.72309 -0.67393 -0.09244 157.44035 -74.55895 -48.37639 12.93059 78.6897 -3.86694 -13.19601 161.16914 73.01785 74.19162 8.88796 -50.71298 9.74458 11.70369 47.05643 -1.3102 -1.03599 -19.55323 -8.6683 -5.46581 -3.71702 50.19947 -0.2439 -4.11273 -24.6169 -9.52528 5.88485 4.03973
-0.00019 0.0001 0 19.21675 -32.59347 -2.89605 56.98924 1.1956 2.16799 -10.69697 -0.71236 -0.09229 157.44237 -74.54903 -48.4648 12.9549 78.68576 -3.83173 -13.20568 161.33724 73.0532 74.08109 8.89404 -50.71803 9.75578 11.70113 47.21193 -1.35465 -1.22085 -19.54278 -8.6512 -5.45426 -3.70541 50.30183 0.05498 -2.67811 -24.60665 -9.37734 5.77952 3.9636
-0.0006 5e-05 -0.00011 19.1404 -32.69782 -2.90745 56.95782 1.20095 2.21778 -10.67094 -0.75076 -0.09215 157.44429 -74.53914 -48.55311 12.97913 78.68181 -3.79661 -13.21533 161.50473 73.08844 73.97117 8.90007 -50.72305 9.76696 11.69854 47.367 -1.39908 -1.40555 -19.5323 -8.63413 -5.44272 -3.69381 50.40401 0.35273 -1.24867 -24.59647 -9.22994 5.67457 3.88775
-0.001 -1e-05 -0.00022 19.06407 -32.80211 -2.91885 56.92645 1.20632 2.26754 -10.64491 -0.78909 -0.092 157.44628 -74.52925 -48.64127 13.00337 78.67787 -3.7615 -13.22498 161.67231 73.12368 73.861 8.90612 -50.72808 9.77813 11.69598 47.52203 -1.44342 -1.58991 -19.52187 -8.61708 -5.4312 -3.68223 50.50607 0.65066 0.1814 -24.58625 -9.08246 5.56957 3.81186
-0.00141 -6e-05 -0.00034 18.98756 -32.90665 -2.93028 56.89508 1.21174 2.31742 -10.6188 -0.82743 -0.09185 157.44842 -74.51933 -48.72947 13.02768 78.67396 -3.72629 -13.23463 161.84051 73.15904 73.75017 8.91224 -50.73313 9.7893 11.69347 47.67746 -1.48772 -1.77426 -19.51149 -8.60003 -5.4197 -3.67065 50.60827 0.94979 1.61693 -24.57598 -8.93442 5.46416 3.73567
-0.00182 -0.00011 -0.00045 18.91156 -33.01059 -2.94163 56.86355 1.21695 2.367 -10.59295 -0.86596 -0.09171 157.44989 -74.50948 -48.818 13.05172 78.66992 -3.69137 -13.24427 162.0065 73.19402 73.6422 8.91809 -50.73809 9.80052 11.6907 47.83178 -1.53243 -1.95968 -19.50082 -8.5829 -5.40808 -3.65902 50.71039 1.2446 3.03351 -24.56597 -8.78835 5.36022 3.66053
-0.00223 -0.00016 -0.00057 18.83461 -33.11561 -2.95313 56.83237 1.22256 2.41713 -10.5666 -0.90405 -0.09156 157.45269 -74.49951 -48.90577 13.07629 78.66614 -3.65592 -13.25395 162.1768 73.22971 73.52848 8.92447 -50.74325 9.81162 11.68846 47.98814 -1.57627 -2.14275 -19.49072 -8.56595 -5.3967 -3.6475 50.81256 1.54777 4.48657 -24.55544 -8.63849 5.25342 3.58338
-0.00264 -0.00022 -0.00068 18.75855 -33.21966 -2.96449 56.80088 1.22782 2.46674 -10.5407 -0.94256 -0.09142 157.45429 -74.48966 -48.99424 13.10037 78.66213 -3.62095 -13.26357 162.34303 73.26479 73.42028 8.93035 -50.74819 9.82282 11.68571 48.14265 -1.62094 -2.32798 -19.48012 -8.54883 -5.3851 -3.63588 50.91469 1.84324 5.90614 -24.54539 -8.49211 5.14925 3.50807
-0.00304 -0.00027 -0.0008 18.68349 -33.32249 -2.97565 56.76893 1.2326 2.51579 -10.51538 -0.98158 -0.09129 157.45428 -74.47992 -49.08361 13.12388 78.6578 -3.58657 -13.2732 162.5047 73.29894 73.31795 8.93566 -50.75297 9.8342 11.68242 48.29489 -1.66654 -2.51603 -19.46883 -8.53151 -5.37322 -3.62412 51.01681 2.12938 7.28463 -24.53591 -8.35 5.04829 3.43502
-0.00346 -0.00032 -0.0009 18.60238 -33.43223 -2.98789 56.73941 1.23996 2.56829 -10.48681 -1.01763 -0.0911 157.46311 -74.46941 -49.16793 13.15076 78.65521 -3.54878 -13.283 162.69386 73.33791 73.17922 8.94438 -50.75901 9.84476 11.68249 48.46017 -1.70654 -2.68841 -19.46127 -8.51534 -5.3629 -3.61312 51.1191 2.46946 8.89907 -24.52312 -8.18336 4.92887 3.34899
-0.00385 -0.00037 -0.00104 18.53426 -33.52743 -2.99791 56.70488 1.242 2.61336 -10.46506 -1.05995 -0.09103 157.45356 -74.46062 -49.26282 13.17047 78.64899 -3.51821 -13.29231 162.8242 73.36704 73.11891 8.9458 -50.76216 9.85691 11.67533 48.59789 -1.7585 -2.89342 -19.44598 -8.49678 -5.34932 -3.60054 51.22095 2.69556 10.01595 -24.51734 -8.06844 4.84837 3.29033
-0.00418 -0.00042 -0.00126 18.50012 -33.58204 -3.00136 56.65531 1.22836 2.63907 -10.46242 -1.11968 -0.09133 157.39083 -74.45591 -49.38812 13.17072 78.63244 -3.50741 -13.30147 162.79854 73.36615 73.26222 8.92791 -50.75934 9.87449 11.64937 48.65966 -1.8425 -3.19251 -19.40832 -8.47121 -5.32664 -3.58343 51.32211 2.60733 9.75337 -24.53054 -8.09712 4.87609 3.30777
-0.00448 -0.00046 -0.00151 18.47932 -33.62217 -3.00266 56.60092 1.20957 2.65714 -10.46655 -1.18565 -0.09175 157.31006 -74.45307 -49.52391 13.16378 78.61232 -3.50389 -13.30997 162.71291 73.3559 73.48609 8.90258 -50.7533 9.89349 11.61601 48.6938 -1.93867 -3.52331 -19.36315 -8.44334 -5.30075 -3.5648 51.42265 2.40509 8.99478 -24.55079 -8.17732 4.94258 3.35248
-0.0048 -0.0005 -0.00176 18.45352 -33.66939 -3.00525 56.54959 1.19383 2.67804 -10.46735 -1.24867 -0.0921 157.23946 -74.4498 -49.65384 13.15992 78.59407 -3.49701 -13.31797 162.65109 73.35191 73.68104 8.88012 -50.74737 9.91112 11.58531 48.7408 -2.0298 -3.83691 -19.32212 -8.41678 -5.27644 -3.54699 51.52323 2.25583 8.47116 -24.56801 -8.23302 4.99051 3.38416
-0.00512 -0.00055 -0.00197 18.4233 -33.7145 -3.00654 56.49463 1.17507 2.70159 -10.46926 -1.31228 -0.09251 157.16089 -74.44473 -49.78791 13.15664 78.57476 -3.49022 -13.32919 162.60332 73.33953 73.845 8.85961 -50.74694 9.93175 11.55736 48.78647 -2.11885 -4.16326 -19.27787 -8.38903 -5.25156 -3.52858 51.62515 2.10073 7.90218 -24.58462 -8.2939 5.04277 3.41881
-0.00542 -0.00059 -0.00228 18.40541 -33.7605 -3.01002 56.446 1.16139 2.71784 -10.47041 -1.37602 -0.09283 157.09418 -74.44386 -49.91645 13.15068 78.55684 -3.48516 -13.33373 162.5125 73.34231 74.09094 8.83349 -50.73455 9.94657 11.52219 48.82832 -2.21515 -4.46945 -19.2387 -8.36332 -5.22717 -3.51111 51.72375 1.93162 7.31513 -24.60406 -8.3556 5.09483 3.45347
-0.00568 -0.00062 -0.00286 18.41867 -33.81318 -3.02016 56.41697 1.16293 2.71543 -10.46839 -1.43961 -0.09285 157.06881 -74.45405 -50.02137 13.1371 78.54331 -3.48144 -13.3183 162.314 73.39007 74.55775 8.7919 -50.68776 9.94399 11.46669 48.86692 -2.32837 -4.72199 -19.21425 -8.34279 -5.20424 -3.49606 51.81674 1.74464 6.75782 -24.63055 -8.41205 5.14001 3.48375
-0.00592 -0.00066 -0.00356 18.44384 -33.86717 -3.03258 56.39433 1.16978 2.70595 -10.46528 -1.50289 -0.09277 157.05538 -74.46844 -50.12114 13.12139 78.53135 -3.47946 -13.29644 162.07492 73.4532 75.10173 8.74521 -50.62946 9.93568 11.40455 48.90255 -2.44857 -4.95165 -19.19544 -8.32456 -5.18202 -3.4821 51.90577 1.54872 6.20694 -24.65948 -8.46664 5.18306 3.51268
-0.00617 -0.0007 -0.00421 18.46323 -33.92011 -3.04385 56.36816 1.17426 2.7 -10.46227 -1.56571 -0.09273 157.03356 -74.48085 -50.22744 13.10804 78.51887 -3.4778 -13.27866 161.8567 73.50879 75.6009 8.7021 -50.57784 9.93072 11.34695 48.93922 -2.56556 -5.18497 -19.17477 -8.30595 -5.15996 -3.46803 51.9944 1.36173 5.68123 -24.68667 -8.5187 5.22495 3.5407
-0.00642 -0.00073 -0.00482 18.48444 -33.9744 -3.05539 56.34442 1.17837 2.69264 -10.4611 -1.63143 -0.09271 157.02301 -74.4934 -50.31764 13.0888 78.50542 -3.4719 -13.25614 161.62612 73.56659 76.14351 8.6536 -50.51995 9.92279 11.28284 48.97624 -2.6828 -5.44649 -19.1507 -8.28454 -5.13584 -3.45235 52.09235 1.15071 5.02148 -24.71675 -8.58664 5.27709 3.57602
-0.00666 -0.00077 -0.00556 18.50478 -34.02645 -3.06711 56.31725 1.18456 2.6864 -10.45581 -1.69078 -0.09264 156.99279 -74.50691 -50.43849 13.08113 78.49446 -3.47493 -13.24178 161.41251 73.62331 76.61351 8.61498 -50.47247 9.91948 11.23062 49.01217 -2.80144 -5.64509 -19.13537 -8.26942 -5.11612 -3.44023 52.16991 0.98846 4.64655 -24.74132 -8.62057 5.30697 3.59555
-0.00689 -0.00082 -0.00664 18.51768 -34.07126 -3.07733 56.27842 1.19536 2.68667 -10.439 -1.73398 -0.09248 156.89886 -74.51996 -50.65819 13.10824 78.48964 -3.50393 -13.25305 161.25466 73.67558 76.85974 8.60669 -50.45622 9.93201 11.21405 49.04614 -2.91842 -5.6603 -19.14146 -8.27209 -5.10918 -3.43824 52.19208 0.96941 5.07965 -24.74993 -8.55919 5.27471 3.5708
-0.00712 -0.00088 -0.00785 18.52976 -34.11388 -3.08794 56.23595 1.20801 2.68791 -10.41819 -1.77047 -0.09234 156.78589 -74.53435 -50.9065 13.1466 78.48734 -3.5415 -13.27232 161.11543 73.72594 77.03143 8.60812 -50.45085 9.94907 11.20926 49.07926 -3.03716 -5.61517 -19.15682 -8.28087 -5.10655 -3.43973 52.19373 0.99919 5.79759 -24.75296 -8.4637 5.22009 3.53022
-0.00735 -0.00094 -0.00902 18.5434 -34.15817 -3.09931 56.19571 1.21979 2.68775 -10.39936 -1.80913 -0.09213 156.68612 -74.54933 -51.1331 13.17843 78.48413 -3.57393 -13.28712 160.96912 73.77561 77.23867 8.60406 -50.44082 9.96295 11.19857 49.11263 -3.15758 -5.60806 -19.16836 -8.28615 -5.10134 -3.4392 52.20495 1.00299 6.37216 -24.75855 -8.38483 5.17633 3.49743
-0.00759 -0.00099 -0.01013 18.55194 -34.20006 -3.10678 56.15371 1.23211 2.6918 -10.37952 -1.85159 -0.09193 156.56806 -74.55888 -51.39607 13.21645 78.47999 -3.61161 -13.30584 160.81701 73.83202 77.4383 8.60472 -50.42948 9.98137 11.19082 49.14622 -3.26798 -5.55734 -19.17686 -8.29436 -5.09855 -3.44042 52.21555 1.02223 7.00438 -24.76392 -8.30136 5.12977 3.46217
-0.00781 -0.00105 -0.0114 18.57141 -34.24592 -3.12248 56.11388 1.24338 2.68687 -10.3612 -1.88443 -0.09201 156.48276 -74.58067 -51.5904 13.24392 78.47834 -3.64045 -13.31761 160.68009 73.87421 77.63918 8.59747 -50.42322 9.99149 11.17874 49.17949 -3.39933 -5.58101 -19.1958 -8.29814 -5.092 -3.43899 52.22193 1.02124 7.58544 -24.76863 -8.21917 5.08353 3.42818
-0.008 -0.00114 -0.01303 18.61578 -34.30737 -3.16013 56.08517 1.25343 2.66138 -10.34521 -1.89357 -0.09049 156.49454 -74.63083 -51.58825 13.24223 78.48306 -3.64166 -13.31421 160.5925 73.87471 77.82343 8.56947 -50.43362 9.97611 11.16115 49.21088 -3.59001 -5.84568 -19.22692 -8.28633 -5.07176 -3.42802 52.22738 0.95055 7.9446 -24.77094 -8.15073 5.04565 3.40269
-0.00818 -0.00123 -0.01481 18.67231 -34.37199 -3.20604 56.05773 1.26172 2.62586 -10.33147 -1.89311 -0.08967 156.53685 -74.69476 -51.51758 13.2287 78.49006 -3.63362 -13.30192 160.51471 73.86215 78.0165 8.5323 -50.44923 9.95159 11.13706 49.24311 -3.80127 -6.1835 -19.27259 -8.27027 -5.04806 -3.41456 52.2281 0.85799 8.24398 -24.77313 -8.08446 5.00856 3.37884
